<svg width="54" height="54" viewBox="0 0 54 54" fill="none" xmlns="http://www.w3.org/2000/svg">
<g id="Icon">
<circle id="Background" cx="27.2805" cy="26.9949" r="26.3889" fill="#181818"/>
<g id="Pattern">
<path id="Pattern_2" d="M27.2518 39.4471C34.1326 39.4471 39.7106 33.8691 39.7106 26.9883C39.7106 20.1074 34.1326 14.5294 27.2518 14.5294C20.371 14.5294 14.793 20.1074 14.793 26.9883C14.793 33.8691 20.371 39.4471 27.2518 39.4471Z" stroke="white" stroke-width="2" stroke-linecap="round" stroke-linejoin="round"/>
<path id="Pattern_3" d="M17.0771 34.1781L18.5956 33.2566C18.7462 33.1637 18.8705 33.0339 18.9568 32.8794C19.0431 32.725 19.0885 32.5511 19.0887 32.3741L19.1147 27.6891C19.1168 27.4948 19.1754 27.3054 19.2834 27.144L21.853 23.1079C21.9301 22.9886 22.0306 22.8862 22.1484 22.8069C22.2662 22.7275 22.3988 22.6729 22.5383 22.6462C22.6777 22.6195 22.8212 22.6213 22.9599 22.6516C23.0987 22.6819 23.2298 22.74 23.3455 22.8223L25.8892 24.6652C26.1086 24.8182 26.3758 24.8873 26.6419 24.8599L30.73 24.3018C30.978 24.2677 31.2045 24.1428 31.3659 23.9514L34.247 20.6291C34.4178 20.4265 34.5059 20.167 34.4936 19.9023L34.3508 16.7487" stroke="white" stroke-width="2" stroke-linecap="round" stroke-linejoin="round"/>
<path id="Pattern_4" d="M34.9213 36.8126L33.5197 35.4109C33.39 35.2814 33.2291 35.1875 33.0525 35.1384L30.2622 34.4116C30.0171 34.3446 29.8052 34.19 29.6665 33.9771C29.5277 33.7642 29.4719 33.5079 29.5095 33.2566L29.808 31.1542C29.8376 30.9773 29.9114 30.8109 30.0226 30.6702C30.1338 30.5295 30.2787 30.4192 30.4439 30.3495L34.3892 28.7013C34.5724 28.6249 34.7737 28.6026 34.9693 28.6371C35.1648 28.6716 35.3463 28.7615 35.4923 28.896L38.7238 31.855" stroke="white" stroke-width="2" stroke-linecap="round" stroke-linejoin="round"/>
</g>
</g>
</svg>
