<svg width="44" height="44" viewBox="0 0 44 44" fill="none" xmlns="http://www.w3.org/2000/svg">
<g id="Icon">
<circle id="Ellipse 1" cx="21.7676" cy="21.7666" r="21.7676" fill="#4EAF4E"/>
<path id="Vector" d="M18.9082 21.9062H24.4252" stroke="#0D0D0D" stroke-linecap="round" stroke-linejoin="round"/>
<path id="Vector_2" d="M18.9082 24.6646H24.4252" stroke="#0D0D0D" stroke-linecap="round" stroke-linejoin="round"/>
<path id="Vector_3" d="M15.4601 14.3203H27.8733C28.0562 14.3203 28.2316 14.393 28.3609 14.5223C28.4903 14.6516 28.5629 14.827 28.5629 15.0099V28.1127C28.5629 28.6614 28.345 29.1877 27.957 29.5756C27.569 29.9636 27.0428 30.1816 26.4941 30.1816H16.8394C16.2907 30.1816 15.7645 29.9636 15.3765 29.5756C14.9885 29.1877 14.7705 28.6614 14.7705 28.1127V15.0099C14.7705 14.827 14.8432 14.6516 14.9725 14.5223C15.1018 14.393 15.2772 14.3203 15.4601 14.3203V14.3203Z" stroke="#0D0D0D" stroke-linecap="round" stroke-linejoin="round"/>
<path id="Vector_4" d="M17.5283 12.9414V15.6999" stroke="#0D0D0D" stroke-linecap="round" stroke-linejoin="round"/>
<path id="Vector_5" d="M21.666 12.9414V15.6999" stroke="#0D0D0D" stroke-linecap="round" stroke-linejoin="round"/>
<path id="Vector_6" d="M25.8037 12.9414V15.6999" stroke="#0D0D0D" stroke-linecap="round" stroke-linejoin="round"/>
</g>
</svg>
