<svg width="41" height="41" viewBox="0 0 41 41" fill="none" xmlns="http://www.w3.org/2000/svg">
<g id="Logo">
<path id="Union" d="M27.8171 32.3932C29.1447 33.1597 30.8424 32.7048 31.6089 31.3772L39.5584 17.6082C40.3249 16.2806 39.87 14.5829 38.5424 13.8164L17.5953 1.7226C16.2677 0.956095 14.57 1.41097 13.8035 2.7386L5.854 16.5076C5.08749 17.8352 5.54237 19.5329 6.87 20.2994L16.6786 25.9623C16.6798 25.9674 16.6811 25.9724 16.6825 25.9774L19.3076 35.7745C19.521 36.5707 20.5905 36.7115 21.0026 35.9977L24.267 30.3435L27.8171 32.3932Z" stroke="#BEBEBE"/>
<rect id="Rectangle 15" x="14.9297" y="15.9263" width="13.8699" height="1.55035" rx="0.775175" transform="rotate(30 14.9297 15.9263)" fill="#BEBEBE"/>
<rect id="Rectangle 16" x="16.9268" y="12.467" width="13.8699" height="1.55035" rx="0.775175" transform="rotate(30 16.9268 12.467)" fill="#BEBEBE"/>
<rect id="Rectangle 17" x="18.7178" y="9.36621" width="13.8699" height="1.55035" rx="0.775175" transform="rotate(30 18.7178 9.36621)" fill="#BEBEBE"/>
</g>
</svg>
