<svg width="86" height="84" viewBox="0 0 86 84" fill="none" xmlns="http://www.w3.org/2000/svg">
<g id="Logo">
<path id="Union" d="M74.725 50.8801C78.1825 49.9536 80.2343 46.3997 79.3079 42.9422L69.6997 7.0839C68.7733 3.62638 65.2194 1.57453 61.7618 2.50097L7.20963 17.1182C3.7521 18.0446 1.70025 21.5985 2.62669 25.056L12.2349 60.9144C13.1613 64.3719 16.7152 66.4237 20.1728 65.4973L45.717 58.6527C45.7274 58.6589 45.7379 58.6651 45.7484 58.6712L66.2581 70.5124C67.9249 71.4748 69.9233 69.9414 69.4251 68.0823L65.4796 53.3574L74.725 50.8801Z" fill="#FFCC4A"/>
<rect id="Rectangle 15" x="26.2598" y="44.9695" width="32.3853" height="3.61997" rx="1.80998" transform="rotate(-15 26.2598 44.9695)" fill="#1B1B1B"/>
<rect id="Rectangle 16" x="23.8457" y="35.9612" width="32.3853" height="3.61997" rx="1.80998" transform="rotate(-15 23.8457 35.9612)" fill="#1B1B1B"/>
<rect id="Rectangle 17" x="21.6826" y="27.8857" width="32.3853" height="3.61997" rx="1.80998" transform="rotate(-15 21.6826 27.8857)" fill="#1B1B1B"/>
</g>
</svg>
