<svg width="65" height="63" viewBox="0 0 65 63" fill="none" xmlns="http://www.w3.org/2000/svg">
<g id="Logo">
<path id="Union" d="M49.7041 49.0501C52.2915 49.7433 54.951 48.2079 55.6443 45.6205L62.8345 18.7863C63.5278 16.1989 61.9924 13.5394 59.405 12.8461L18.5814 1.90742C15.994 1.21412 13.3345 2.7496 12.6412 5.337L5.45097 32.1712C4.75768 34.7586 6.29316 37.4181 8.88056 38.1114L27.9963 43.2335C28.0008 43.2414 28.0052 43.2493 28.0098 43.2572L36.8711 58.6054C37.5912 59.8527 39.46 59.6067 39.8328 58.2154L42.7854 47.1962L49.7041 49.0501Z" fill="#D5D5D5"/>
<rect id="Rectangle 15" x="20.5059" y="27.0854" width="24.2352" height="2.70897" rx="1.35448" transform="rotate(15 20.5059 27.0854)" fill="#1B1B1B"/>
<rect id="Rectangle 16" x="22.3125" y="20.344" width="24.2352" height="2.70897" rx="1.35448" transform="rotate(15 22.3125 20.344)" fill="#1B1B1B"/>
<rect id="Rectangle 17" x="23.9316" y="14.3008" width="24.2352" height="2.70897" rx="1.35448" transform="rotate(15 23.9316 14.3008)" fill="#1B1B1B"/>
</g>
</svg>
