<svg width="64" height="63" viewBox="0 0 64 63" fill="none" xmlns="http://www.w3.org/2000/svg">
<g id="Logo">
<path id="Union" d="M49.0645 49.0635C51.6519 49.7568 54.3114 48.2213 55.0047 45.6339L62.1949 18.7997C62.8882 16.2123 61.3527 13.5528 58.7653 12.8595L17.9417 1.92084C15.3543 1.22755 12.6948 2.76303 12.0015 5.35043L4.81132 32.1846C4.11803 34.772 5.65351 37.4315 8.24091 38.1248L27.3567 43.2469C27.3611 43.2548 27.3656 43.2627 27.3701 43.2706L36.2314 58.6188C36.9516 59.8662 38.8204 59.6201 39.1932 58.2289L42.1458 47.2096L49.0645 49.0635Z" fill="#353535"/>
<rect id="Rectangle 15" x="19.8662" y="27.0989" width="24.2352" height="2.70897" rx="1.35448" transform="rotate(15 19.8662 27.0989)" fill="white"/>
<rect id="Rectangle 16" x="21.6729" y="20.3574" width="24.2352" height="2.70897" rx="1.35448" transform="rotate(15 21.6729 20.3574)" fill="white"/>
<rect id="Rectangle 17" x="23.292" y="14.3142" width="24.2352" height="2.70897" rx="1.35448" transform="rotate(15 23.292 14.3142)" fill="white"/>
</g>
</svg>
