<svg width="31" height="30" viewBox="0 0 31 30" fill="none" xmlns="http://www.w3.org/2000/svg">
<g id="Logo">
<path id="Union" d="M27.6109 21.7226C29.1439 21.7226 30.3867 20.4798 30.3867 18.9468V3.04775C30.3867 1.51473 29.1439 0.271975 27.6109 0.271975L3.42323 0.271973C1.89022 0.271973 0.647464 1.51472 0.647462 3.04774L0.647461 18.9468C0.647461 20.4798 1.89022 21.7226 3.42323 21.7226H14.7492C14.7528 21.7263 14.7564 21.73 14.7601 21.7337L21.9321 28.9056C22.515 29.4885 23.5116 29.0757 23.5116 28.2514V21.7226H27.6109Z" fill="#4EAF4E"/>
<rect id="Rectangle 15" x="8.2168" y="13.9053" width="13.8699" height="1.55035" rx="0.775175" fill="#1B1B1B"/>
<rect id="Rectangle 16" x="8.2168" y="9.91113" width="13.8699" height="1.55035" rx="0.775175" fill="#1B1B1B"/>
<rect id="Rectangle 17" x="8.2168" y="6.33057" width="13.8699" height="1.55035" rx="0.775175" fill="#1B1B1B"/>
</g>
</svg>
