<svg width="44" height="44" viewBox="0 0 44 44" fill="none" xmlns="http://www.w3.org/2000/svg">
<g id="Icon">
<circle id="Icon_2" cx="21.8213" cy="21.7676" r="21.7676" fill="#FFC42B"/>
<path id="Icon_3" d="M18.9586 22.054C19.7098 23.6053 20.9641 24.8564 22.5173 25.6036C22.6319 25.6579 22.7586 25.6814 22.885 25.6718C23.0114 25.6622 23.1331 25.6198 23.2382 25.5489L25.5194 24.025C25.6202 23.9567 25.7367 23.9149 25.8579 23.9038C25.9792 23.8926 26.1013 23.9123 26.2129 23.9611L30.4834 25.7953C30.6293 25.856 30.7513 25.963 30.8304 26.0999C30.9096 26.2368 30.9415 26.3958 30.9214 26.5526C30.786 27.6091 30.2704 28.58 29.4709 29.2837C28.6715 29.9874 27.643 30.3757 26.5779 30.376C23.2866 30.376 20.1301 29.0685 17.8028 26.7412C15.4754 24.4139 14.168 21.2574 14.168 17.9661C14.1682 16.901 14.5565 15.8725 15.2602 15.073C15.964 14.2736 16.9349 13.7579 17.9913 13.6226C18.1481 13.6024 18.3072 13.6344 18.4441 13.7135C18.5809 13.7927 18.6879 13.9146 18.7487 14.0606L20.5828 18.3402C20.6305 18.45 20.6505 18.5699 20.6409 18.6892C20.6314 18.8085 20.5926 18.9237 20.5281 19.0245L19.0042 21.3423C18.9363 21.4471 18.8965 21.5676 18.8885 21.6922C18.8806 21.8168 18.9047 21.9414 18.9586 22.054V22.054Z" stroke="#0D0D0D" stroke-linecap="round" stroke-linejoin="round"/>
</g>
</svg>
