<svg width="54" height="53" viewBox="0 0 54 53" fill="none" xmlns="http://www.w3.org/2000/svg">
<g id="Icon">
<circle id="Background" cx="27.2805" cy="26.3889" r="26.3889" fill="#181818"/>
<path id="Pattern" d="M26.8286 26.9961L18.7968 20.9722C18.6662 20.8731 18.5603 20.7453 18.487 20.5987C18.4137 20.4521 18.375 20.2906 18.374 20.1267V15.371C18.374 15.0907 18.4854 14.8219 18.6836 14.6237C18.8818 14.4256 19.1506 14.3142 19.4308 14.3142H34.2264C34.5067 14.3142 34.7755 14.4256 34.9737 14.6237C35.1719 14.8219 35.2832 15.0907 35.2832 15.371V20.0739C35.2822 20.2378 35.2436 20.3993 35.1703 20.5458C35.097 20.6924 34.991 20.8202 34.8605 20.9194L26.8286 26.9961Z" stroke="white" stroke-width="2" stroke-linecap="round" stroke-linejoin="round"/>
<path id="Pattern_2" d="M26.8286 26.9961L18.7968 33.02C18.6662 33.1191 18.5603 33.2469 18.487 33.3935C18.4137 33.5401 18.375 33.7016 18.374 33.8655V38.6212C18.374 38.9015 18.4854 39.1703 18.6836 39.3685C18.8818 39.5666 19.1506 39.678 19.4308 39.678H34.2264C34.5067 39.678 34.7755 39.5666 34.9737 39.3685C35.1719 39.1703 35.2832 38.9015 35.2832 38.6212V33.9183C35.2822 33.7544 35.2436 33.5929 35.1703 33.4464C35.097 33.2998 34.991 33.172 34.8605 33.0728L26.8286 26.9961Z" stroke="white" stroke-width="2" stroke-linecap="round" stroke-linejoin="round"/>
</g>
</svg>
